RBDS025runT45_grf
version=1
nRows=18
nColumns=19
inDegrees=no
endheader
time	ground_force_r_vx	ground_force_r_vy	ground_force_r_vz	ground_force_r_px	ground_force_r_py	ground_force_r_pz	ground_force_r_mx	ground_force_r_my	ground_force_r_mz	ground_force_l_vx	ground_force_l_vy	ground_force_l_vz	ground_force_l_px	ground_force_l_py	ground_force_l_pz	ground_force_l_mx	ground_force_l_my	ground_force_l_mz
      7.49900000	      0.00000000	      0.00000000	      0.00000000	      0.00000000	      0.00000000	      0.00000000	      0.00000000	      0.00000000	      0.00000000	    206.72859084	    923.85741266	     -6.29608534	      1.83544911	      0.00000000	      0.90523972	      0.00000000	      9.27046004	      0.00000000
      7.50000000	      0.00000000	      0.00000000	      0.00000000	      0.00000000	      0.00000000	      0.00000000	      0.00000000	      0.00000000	      0.00000000	    206.47883572	    900.33375521	     -6.98944375	      1.83180699	      0.00000000	      0.90523149	      0.00000000	      9.04770974	      0.00000000
      7.50100000	      0.00000000	      0.00000000	      0.00000000	      0.00000000	      0.00000000	      0.00000000	      0.00000000	      0.00000000	      0.00000000	    205.45489980	    876.53137842	     -7.52395644	      1.82835306	      0.00000000	      0.90522017	      0.00000000	      8.79387058	      0.00000000
      7.50200000	      0.00000000	      0.00000000	      0.00000000	      0.00000000	      0.00000000	      0.00000000	      0.00000000	      0.00000000	      0.00000000	    204.43096388	    852.72900162	     -8.05846914	      1.82489914	      0.00000000	      0.90520884	      0.00000000	      8.54003143	      0.00000000
      7.50300000	      0.00000000	      0.00000000	      0.00000000	      0.00000000	      0.00000000	      0.00000000	      0.00000000	      0.00000000	      0.00000000	    203.40702796	    828.92662482	     -8.59298183	      1.82144521	      0.00000000	      0.90519751	      0.00000000	      8.28619227	      0.00000000
      7.50400000	      0.00000000	      0.00000000	      0.00000000	      0.00000000	      0.00000000	      0.00000000	      0.00000000	      0.00000000	      0.00000000	    201.91050788	    805.10234274	     -9.02405601	      1.81812715	      0.00000000	      0.90518443	      0.00000000	      8.01270998	      0.00000000
      7.50500000	      0.00000000	      0.00000000	      0.00000000	      0.00000000	      0.00000000	      0.00000000	      0.00000000	      0.00000000	      0.00000000	    200.17769573	    781.26710801	     -9.40341092	      1.81487703	      0.00000000	      0.90517046	      0.00000000	      7.72940612	      0.00000000
      7.50600000	      0.00000000	      0.00000000	      0.00000000	      0.00000000	      0.00000000	      0.00000000	      0.00000000	      0.00000000	      0.00000000	    198.44488358	    757.43187329	     -9.78276584	      1.81162690	      0.00000000	      0.90515649	      0.00000000	      7.44610226	      0.00000000
      7.50700000	      0.00000000	      0.00000000	      0.00000000	      0.00000000	      0.00000000	      0.00000000	      0.00000000	      0.00000000	      0.00000000	    196.50222171	    733.66843669	    -10.11306165	      1.80844896	      0.00000000	      0.90514185	      0.00000000	      7.15376375	      0.00000000
      7.50800000	      0.00000000	      0.00000000	      0.00000000	      0.00000000	      0.00000000	      0.00000000	      0.00000000	      0.00000000	      0.00000000	    194.13986040	    710.04859634	    -10.34523925	      1.80541539	      0.00000000	      0.90512588	      0.00000000	      6.84335595	      0.00000000
      7.50900000	      0.00000000	      0.00000000	      0.00000000	      0.00000000	      0.00000000	      0.00000000	      0.00000000	      0.00000000	      0.00000000	    191.77749909	    686.42875599	    -10.57741685	      1.80238182	      0.00000000	      0.90510990	      0.00000000	      6.53294815	      0.00000000
      7.51000000	      0.00000000	      0.00000000	      0.00000000	      0.00000000	      0.00000000	      0.00000000	      0.00000000	      0.00000000	      0.00000000	    189.41513779	    662.80891564	    -10.80959446	      1.79934824	      0.00000000	      0.90509393	      0.00000000	      6.22254035	      0.00000000
      7.51100000	      0.00000000	      0.00000000	      0.00000000	      0.00000000	      0.00000000	      0.00000000	      0.00000000	      0.00000000	      0.00000000	    186.51413970	    639.64876013	    -10.90621231	      1.79654080	      0.00000000	      0.90507671	      0.00000000	      5.88816398	      0.00000000
      7.51200000	      0.00000000	      0.00000000	      0.00000000	      0.00000000	      0.00000000	      0.00000000	      0.00000000	      0.00000000	      0.00000000	    183.61314162	    616.48860462	    -11.00283015	      1.79373336	      0.00000000	      0.90505949	      0.00000000	      5.55378761	      0.00000000
      7.51300000	      0.00000000	      0.00000000	      0.00000000	      0.00000000	      0.00000000	      0.00000000	      0.00000000	      0.00000000	      0.00000000	    180.71214354	    593.32844912	    -11.09944800	      1.79092591	      0.00000000	      0.90504227	      0.00000000	      5.21941123	      0.00000000
      7.51400000	      0.00000000	      0.00000000	      0.00000000	      0.00000000	      0.00000000	      0.00000000	      0.00000000	      0.00000000	      0.00000000	    177.51851439	    570.63078403	    -11.11538656	      1.78827337	      0.00000000	      0.90502477	      0.00000000	      4.87166291	      0.00000000
      7.51500000	      0.00000000	      0.00000000	      0.00000000	      0.00000000	      0.00000000	      0.00000000	      0.00000000	      0.00000000	      0.00000000	    174.17856971	    548.16436415	    -11.09098548	      1.78569826	      0.00000000	      0.90500712	      0.00000000	      4.51722862	      0.00000000
      7.51600000	      0.00000000	      0.00000000	      0.00000000	      0.00000000	      0.00000000	      0.00000000	      0.00000000	      0.00000000	      0.00000000	    170.83862504	    525.69794427	    -11.06658440	      1.78312316	      0.00000000	      0.90498947	      0.00000000	      4.16279433	      0.00000000
